<svg width="1401" height="417" viewBox="0 0 1401 417" fill="none" xmlns="http://www.w3.org/2000/svg">
<path d="M1432.2 787.026L1431.92 912.433L1465.71 948.576L1480.52 963.379L1460.24 983.545H1322.88L1254.45 915.171H1008.6L898.723 1024.77H853.085V975.78L966.986 862.159H1029.66L1124.46 767.586H1234L1399.85 602.181L1400.13 460.518H1371.92L1316.34 515.932L1265.51 566.71L1224.34 525.54L1493.03 257.296H1567.04V264.725L1566.99 283.941L1588.22 305.224L1639.5 356.672V386.949L1639.11 489.789L1638.83 570.564V581.122L1432.14 786.97L1432.2 787.026ZM1318.69 855.567L1393.65 780.881L1393.76 704.184H1361.03L1335.11 730.047L1269.92 795.014L1240.93 823.894V854.729L1318.63 855.567H1318.69Z" fill="#FDFDFD"/>
<path d="M1209.87 518.558L1183.73 506.045L1173.06 500.906L1392.26 282.042L1493.09 257.352L1224.39 525.54L1209.87 518.558Z" fill="white"/>
<path d="M898.781 1025.5H853.142C852.751 1025.5 852.472 1025.16 852.472 1024.83V975.836C852.472 975.836 852.528 975.501 852.695 975.333L966.596 861.712C966.596 861.712 966.931 861.488 967.099 861.488H1029.44L1124.01 767.139C1124.01 767.139 1124.35 766.916 1124.52 766.916H1233.72L1399.18 601.902L1399.46 461.244H1372.26L1266.07 567.213C1266.07 567.213 1265.34 567.492 1265.06 567.213L1223.89 526.043C1223.89 526.043 1223.67 525.708 1223.67 525.54C1223.67 525.373 1223.72 525.205 1223.89 525.038L1492.58 256.793C1492.58 256.793 1492.92 256.57 1493.09 256.57H1567.1C1567.1 256.57 1567.44 256.625 1567.6 256.793C1567.72 256.905 1567.83 257.128 1567.83 257.296V283.662L1640.06 356.17C1640.17 356.281 1640.28 356.505 1640.28 356.672L1639.61 581.122C1639.61 581.122 1639.55 581.457 1639.39 581.625L1432.92 787.249L1432.64 912.098L1466.22 948.073L1481.02 962.876C1481.02 962.876 1481.24 963.211 1481.24 963.379C1481.24 963.547 1481.19 963.714 1481.02 963.882L1460.74 984.048C1460.74 984.048 1460.41 984.271 1460.24 984.271H1322.88C1322.88 984.271 1322.54 984.215 1322.37 984.048L1254.17 915.897H1008.88L899.228 1025.27C899.228 1025.27 898.893 1025.5 898.725 1025.5H898.781ZM853.813 1024.1H898.502L1008.16 914.724C1008.16 914.724 1008.49 914.501 1008.66 914.501H1254.5C1254.5 914.501 1254.89 914.556 1255.01 914.724L1323.21 982.874H1459.96L1479.51 963.379L1465.16 949.023L1431.36 912.881C1431.36 912.881 1431.19 912.601 1431.19 912.378L1431.47 786.97C1431.47 786.97 1431.53 786.635 1431.69 786.467L1638.16 580.843L1638.83 357.008L1566.54 284.5C1566.54 284.5 1566.32 284.165 1566.32 283.997V258.022H1493.37L1225.34 525.54L1265.51 565.704L1371.42 460.015C1371.42 460.015 1371.76 459.792 1371.92 459.792H1400.13C1400.13 459.792 1400.47 459.848 1400.64 460.015C1400.75 460.127 1400.86 460.351 1400.86 460.518L1400.58 602.182C1400.58 602.182 1400.52 602.517 1400.36 602.684L1234.51 768.089C1234.51 768.089 1234.17 768.312 1234 768.312H1124.79L1030.22 862.661C1030.22 862.661 1029.89 862.885 1029.72 862.885H967.378L853.924 976.115V1024.1H853.813ZM1318.69 856.237L1240.99 855.4C1240.59 855.4 1240.32 855.064 1240.32 854.729V823.894C1240.32 823.894 1240.43 823.559 1240.54 823.391L1360.64 703.681C1360.64 703.681 1360.97 703.458 1361.14 703.458H1393.88C1393.88 703.458 1394.21 703.513 1394.38 703.681C1394.49 703.793 1394.6 704.016 1394.6 704.184L1394.49 780.881C1394.49 780.881 1394.44 781.216 1394.27 781.384L1319.3 856.07C1319.3 856.07 1318.97 856.293 1318.8 856.293L1318.69 856.237ZM1241.66 854.003L1318.41 854.841L1392.98 780.546L1393.09 704.854H1361.37L1241.71 824.117V853.947L1241.66 854.003Z" fill="white"/>
<path d="M1224.39 526.267C1224.39 526.267 1224.17 526.267 1224.11 526.211L1172.78 501.52C1172.78 501.52 1172.44 501.241 1172.39 501.017C1172.39 500.794 1172.39 500.571 1172.55 500.403L1391.75 281.54C1391.75 281.54 1391.98 281.372 1392.09 281.372L1492.92 256.681C1493.2 256.626 1493.53 256.737 1493.7 257.017C1493.87 257.296 1493.81 257.631 1493.59 257.855L1224.9 526.099C1224.9 526.099 1224.56 526.323 1224.39 526.323V526.267ZM1174.29 500.682L1210.2 517.943L1224.28 524.703L1490.85 258.581L1392.59 282.657L1174.23 500.682H1174.29Z" fill="white"/>
<path d="M-221.234 581.178V570.62L-221.513 489.845L-221.848 387.005V356.728L-170.623 305.28L-149.396 283.997V264.781L-149.452 257.352H-75.4363L193.255 525.596L152.086 566.766L101.252 515.988L45.6703 460.574H17.4605L17.7398 602.237L183.591 767.642H293.135L387.931 862.215H450.607L564.507 975.836V1024.83H518.869L408.99 915.227H163.146L94.7163 983.6H-42.6459L-62.9235 963.435L-48.1203 948.631L-14.3244 912.489L-14.6037 787.081L-221.234 581.234V581.178ZM176.664 854.729V823.894L147.672 795.014L82.4827 730.047L56.5632 704.184H23.8287L23.9404 780.881L98.9058 855.567L176.609 854.729H176.664Z" fill="#FDFDFD"/>
<path d="M207.779 518.558L233.866 506.045L244.592 500.906L25.3931 282.042L-75.436 257.352L193.255 525.54L207.779 518.558Z" fill="white"/>
<path d="M564.509 1025.5H518.87C518.87 1025.5 518.535 1025.44 518.367 1025.27L408.712 915.897H163.426L95.2202 984.048C95.2202 984.048 94.885 984.271 94.7174 984.271H-42.6448C-42.6448 984.271 -43.0358 984.215 -43.1475 984.048L-63.4251 963.882C-63.4251 963.882 -63.6485 963.547 -63.6485 963.379C-63.6485 963.211 -63.5927 963.044 -63.4251 962.876L-48.6219 948.073L-15.0495 912.154L-15.3287 787.305L-221.791 581.681C-221.791 581.681 -222.014 581.346 -222.014 581.178L-222.685 356.728C-222.685 356.728 -222.629 356.337 -222.461 356.226L-150.177 283.718V257.352C-150.177 257.352 -150.177 256.961 -150.066 256.849C-149.954 256.737 -149.73 256.625 -149.563 256.625H-75.5469C-75.5469 256.625 -75.2118 256.681 -75.0442 256.849L193.647 525.093C193.647 525.093 193.871 525.429 193.871 525.596C193.871 525.764 193.815 525.987 193.647 526.099L152.478 567.269C152.478 567.269 151.752 567.548 151.472 567.269L45.2804 461.3H18.0761L18.3554 601.958L183.816 766.972H293.08C293.08 766.972 293.471 767.027 293.583 767.195L388.155 861.544H450.496C450.496 861.544 450.831 861.6 450.999 861.768L564.844 975.389C564.844 975.389 565.067 975.724 565.067 975.892V1024.88C565.067 1025.27 564.732 1025.55 564.397 1025.55L564.509 1025.5ZM519.149 1024.1H563.838V976.115L450.384 862.885H388.044C388.044 862.885 387.653 862.829 387.541 862.661L292.968 768.312H183.704C183.704 768.312 183.369 768.256 183.201 768.089L17.3499 602.684C17.3499 602.684 17.1265 602.349 17.1265 602.182L16.8472 460.518C16.8472 460.518 16.903 460.127 17.0706 460.015C17.1823 459.904 17.4058 459.792 17.5734 459.792H45.7832C45.7832 459.792 46.1742 459.848 46.2859 460.015L152.198 565.704L192.362 525.54L-75.6586 258.022H-148.669V283.997C-148.669 283.997 -148.669 284.388 -148.781 284.5L-221.065 357.008L-220.394 580.843L-13.9322 786.467C-13.9322 786.467 -13.7088 786.802 -13.7088 786.97L-13.4295 912.378C-13.4295 912.378 -13.4853 912.713 -13.5971 912.881L-47.393 949.023L-61.7492 963.379L-42.1979 982.874H94.5498L162.756 914.724C162.756 914.724 163.091 914.501 163.259 914.501H409.103C409.103 914.501 409.438 914.556 409.606 914.724L519.261 1024.1H519.149ZM98.907 856.238C98.907 856.238 98.5718 856.182 98.4043 856.014L23.4388 781.328C23.4388 781.328 23.2154 780.993 23.2154 780.825L23.1036 704.128C23.1036 704.128 23.1595 703.793 23.3271 703.625C23.4388 703.514 23.6622 703.402 23.8298 703.402H56.5643C56.5643 703.402 56.8995 703.458 57.0671 703.625L177.168 823.335C177.168 823.335 177.392 823.671 177.392 823.838V854.673C177.392 855.064 177.112 855.344 176.721 855.344L99.0187 856.182L98.907 856.238ZM24.6119 780.546L99.1863 854.841L175.939 854.003V824.173L56.2292 704.91H24.5001L24.6119 780.602V780.546Z" fill="white"/>
<path d="M193.256 526.267C193.256 526.267 192.92 526.211 192.753 526.043L-75.9386 257.799C-75.9386 257.799 -76.2179 257.24 -76.0503 256.961C-75.8828 256.681 -75.6035 256.57 -75.2683 256.626L25.5608 281.316C25.5608 281.316 25.7843 281.428 25.896 281.484L245.095 500.347C245.095 500.347 245.318 500.738 245.262 500.962C245.262 501.185 245.095 501.353 244.871 501.464L193.535 526.155C193.535 526.155 193.311 526.211 193.256 526.211V526.267ZM-73.2014 258.637L193.367 524.758L207.444 517.999L243.363 500.738L25.0022 282.713L-73.2573 258.637H-73.2014Z" fill="white"/>
<g opacity="0.2">
<path d="M607.911 1020.58H566.127C566.127 1020.58 565.792 1020.52 565.624 1020.36L468.65 923.159C468.65 923.159 468.426 922.824 468.426 922.656V869.477L387.93 788.757C387.93 788.757 387.707 788.422 387.707 788.255V695.079L246.937 553.918L127.06 553.694V576.765L217.498 667.371C217.498 667.371 217.778 668.098 217.498 668.377L182.362 703.514C182.362 703.514 182.027 703.737 181.859 703.737C181.859 703.737 181.524 703.681 181.356 703.514L-47.562 474.204C-47.562 474.204 -47.7854 473.869 -47.7854 473.701V410.523C-47.7854 410.523 -47.7296 410.187 -47.562 410.02C-47.4503 409.908 -47.2268 409.796 -47.0592 409.796H-24.6031L37.235 348.182C37.3467 348.07 37.5702 347.958 37.7378 347.958L229.285 348.517C229.285 348.517 229.62 348.573 229.788 348.74L405.247 524.926L511.718 525.149L542.386 496.493L555.011 483.868C555.011 483.868 555.346 483.645 555.513 483.645C555.513 483.645 555.849 483.7 556.016 483.868L573.221 501.185C573.221 501.185 573.445 501.52 573.445 501.688V618.884C573.445 618.884 573.389 619.275 573.221 619.387L515.07 677.594V886.849L608.358 980.416C608.358 980.416 608.581 980.752 608.581 980.919V1019.85C608.581 1020.25 608.246 1020.52 607.911 1020.52V1020.58ZM566.406 1019.18H607.241V981.199L513.953 887.631C513.953 887.631 513.729 887.296 513.729 887.129V677.315C513.729 677.315 513.785 676.98 513.953 676.812L572.104 618.605V501.967L555.569 485.376L543.392 497.554L512.5 526.378C512.5 526.378 512.221 526.546 511.998 526.546L404.968 526.322C404.968 526.322 404.633 526.267 404.465 526.099L229.006 349.913L38.0729 349.355L-23.7652 411.025C-23.7652 411.025 -24.1003 411.249 -24.2679 411.249H-46.333V473.366L181.859 702.005L215.99 667.874L125.886 577.547C125.886 577.547 125.663 577.212 125.663 577.044V552.968C125.663 552.968 125.719 552.633 125.886 552.465C125.998 552.354 126.222 552.242 126.389 552.242L247.272 552.465C247.272 552.465 247.608 552.521 247.775 552.689L388.936 694.241C388.936 694.241 389.159 694.576 389.159 694.743V787.92L469.655 868.639C469.655 868.639 469.878 868.974 469.878 869.141V922.321L566.406 1019.07V1019.18ZM462.784 689.548H436.474C436.474 689.548 436.138 689.437 435.971 689.325L333.801 586.82C333.801 586.82 333.578 586.485 333.578 586.317V558.387C333.578 558.387 333.634 558.051 333.801 557.884C333.969 557.716 334.136 557.66 334.304 557.66L399.773 557.772C399.773 557.772 400.108 557.828 400.276 557.996L464.013 621.956C464.013 621.956 464.237 622.292 464.237 622.459L463.51 688.766C463.51 689.157 463.175 689.437 462.84 689.437L462.784 689.548ZM436.753 688.152H462.058L462.784 622.85L399.438 559.28L334.974 559.169V586.094L436.697 688.152H436.753Z" fill="white"/>
<path d="M404.969 526.322C404.969 526.322 404.633 526.267 404.466 526.099L228.783 349.746C228.783 349.746 228.56 349.299 228.615 349.075L239.843 307.962C239.843 307.962 240.123 307.515 240.346 307.459C240.57 307.459 240.849 307.459 241.017 307.627L428.877 496.269C428.877 496.269 429.156 496.94 428.877 497.219L405.415 526.043C405.415 526.043 405.08 526.267 404.913 526.322H404.969ZM230.068 349.075L404.913 524.591L427.481 496.884L240.905 309.526L230.068 349.075Z" fill="white"/>
<path d="M542.889 497.777L428.43 497.554C428.43 497.554 428.095 497.498 427.927 497.331L240.067 308.688C240.067 308.688 239.843 308.353 239.843 308.185V214.004C239.843 214.004 239.899 213.668 240.067 213.501C240.178 213.389 240.402 213.277 240.569 213.277L352.347 213.724C352.347 213.724 352.683 213.78 352.85 213.948L588.863 451.133C588.863 451.133 589.142 451.86 588.863 452.139L543.448 497.554C543.448 497.554 543.113 497.777 542.945 497.777H542.889ZM428.709 496.157L542.554 496.381L587.299 451.636L352.012 215.121L241.24 214.73V307.906L428.709 496.157Z" fill="white"/>
<path d="M229.341 349.969H220.348C219.957 349.969 219.677 349.634 219.677 349.243V298.912L239.955 213.836C240.011 213.501 240.346 213.277 240.737 213.277C241.072 213.277 241.351 213.613 241.351 213.948V308.129C241.351 308.129 241.351 308.241 241.351 308.297L230.123 349.411C230.067 349.69 229.788 349.913 229.453 349.913L229.341 349.969ZM221.074 348.573H228.838L239.899 308.073V219.981L221.018 299.136V348.629L221.074 348.573Z" fill="white"/>
<path d="M157.448 306.789L63.4899 306.454C63.4899 306.454 63.1547 306.398 62.9871 306.23L17.237 260.312C17.237 260.312 17.0135 259.977 17.0135 259.81V216.294L-115.768 83.0653L-171.741 82.8419C-171.741 82.8419 -172.076 82.786 -172.244 82.6185L-214.475 40.2758C-214.475 40.2758 -214.754 39.7731 -214.642 39.4938C-214.53 39.2145 -214.307 39.0469 -213.972 39.0469H-91.301C-91.301 39.0469 -90.9658 39.0469 -90.7982 39.2145L120.189 250.928L183.479 251.151C183.87 251.151 184.15 251.486 184.15 251.821V279.975C184.15 279.975 184.094 280.311 183.926 280.478L157.895 306.398C157.895 306.398 157.56 306.621 157.392 306.621L157.448 306.789ZM63.7691 305.057L157.169 305.392L182.753 279.864V252.659L119.854 252.436C119.854 252.436 119.518 252.38 119.351 252.212L-91.5803 40.4993H-212.24L-171.406 81.4454L-115.433 81.6688C-115.433 81.6688 -115.098 81.7247 -114.93 81.8923L18.2425 215.512C18.2425 215.512 18.4659 215.847 18.4659 216.015V259.53L63.825 305.057H63.7691Z" fill="white"/>
<path d="M-24.2679 411.305H-40.6352C-41.0262 411.305 -41.3055 410.969 -41.3055 410.578V360.583L-70.465 360.471C-70.465 360.471 -70.8001 360.415 -70.9677 360.248L-195.203 235.733C-195.203 235.733 -195.426 235.398 -195.426 235.231V101.108C-195.426 100.829 -195.258 100.55 -194.979 100.438C-194.7 100.326 -194.421 100.438 -194.197 100.606L-154.871 140.043C-154.871 140.043 -154.648 140.379 -154.648 140.546L-154.871 185.57L-35.5519 305.224L21.2588 305.392C21.2588 305.392 21.594 305.448 21.7615 305.616L64.2718 348.237C64.2718 348.237 64.5511 348.74 64.4394 349.02C64.3276 349.299 64.1042 349.466 63.769 349.466H38.2405L-23.5976 411.081C-23.7093 411.193 -23.9327 411.305 -24.1003 411.305H-24.2679ZM-39.9649 409.852H-24.5472L37.2909 348.237C37.4026 348.126 37.6261 348.014 37.7937 348.014H61.9256L20.8119 306.844L-35.9429 306.677C-35.9429 306.677 -36.278 306.621 -36.4456 306.453L-156.156 186.352C-156.156 186.352 -156.379 186.017 -156.379 185.85L-156.156 140.826L-194.085 102.784V234.895L-70.2415 359.019L-40.6911 359.13C-40.3 359.13 -40.0207 359.466 -40.0207 359.801V409.796L-39.9649 409.852Z" fill="white"/>
<path d="M63.7691 349.466C63.7691 349.466 63.2663 349.411 63.0988 349.243L20.5885 306.621C20.5885 306.621 20.4209 306.342 20.3651 306.174L17.0134 259.865C17.0134 259.586 17.1251 259.307 17.4045 259.195C17.6838 259.083 17.9631 259.139 18.1865 259.363L63.9367 305.28C63.9367 305.28 64.1601 305.56 64.1601 305.783L64.4394 348.796C64.4394 348.796 64.3835 349.187 64.216 349.299C64.1042 349.411 63.8808 349.522 63.7132 349.522L63.7691 349.466ZM21.8175 305.839L63.0988 347.232L62.8194 306.062L18.5775 261.709L21.8175 305.895V305.839Z" fill="white"/>
<path d="M21.091 306.844L-29.5749 306.677C-29.5749 306.677 -29.9101 306.621 -30.0776 306.453L-78.7326 257.631C-78.7326 257.631 -78.9002 257.407 -78.9002 257.296L-116.104 82.5067C-116.159 82.2274 -116.048 81.8922 -115.768 81.7246C-115.489 81.5571 -115.154 81.6129 -114.931 81.8364L18.2421 215.456C18.2421 215.456 18.4655 215.791 18.4655 215.959V259.754L21.8172 306.062C21.8172 306.062 21.8172 306.453 21.6496 306.565C21.5379 306.733 21.3145 306.789 21.1469 306.789L21.091 306.844ZM-29.2956 305.28L20.3648 305.448L17.0132 259.865V216.294L-114.316 84.5177L-77.6154 256.793L-29.2956 305.28Z" fill="white"/>
<path d="M151.358 349.746L63.7126 349.467C63.3216 349.467 63.0423 349.131 63.0423 348.796L62.7629 305.783C62.7629 305.783 62.8188 305.392 62.9864 305.281C63.154 305.169 63.3216 305.057 63.4892 305.057L157.447 305.392C157.447 305.392 157.838 305.504 157.95 305.616C158.062 305.783 158.118 305.951 158.118 306.174L152.029 349.131C152.029 349.467 151.694 349.746 151.358 349.746ZM64.4388 348.07L150.744 348.349L156.665 306.789L64.2153 306.51L64.4947 348.126L64.4388 348.07Z" fill="white"/>
<path d="M151.527 349.746C151.527 349.746 151.303 349.746 151.192 349.69C150.912 349.578 150.745 349.243 150.801 348.964L156.722 306.007C156.722 306.007 156.834 305.727 156.945 305.616L182.977 279.696C182.977 279.696 183.535 279.417 183.815 279.584C184.094 279.752 184.261 280.031 184.206 280.311L176.329 325.223C176.329 325.223 176.217 325.502 176.162 325.614L152.086 349.634C152.086 349.634 151.75 349.857 151.583 349.857L151.527 349.746ZM158.119 306.398L152.477 347.064L174.933 324.664L182.418 282.154L158.119 306.342V306.398Z" fill="white"/>
<path d="M220.348 349.969L151.527 349.746C151.247 349.746 150.968 349.578 150.856 349.299C150.745 349.02 150.856 348.74 151.024 348.517L174.933 324.664L179.513 298.633C179.569 298.298 179.848 298.074 180.184 298.074L220.292 298.186C220.683 298.186 220.962 298.521 220.962 298.857V349.187C220.962 349.187 220.906 349.522 220.739 349.69C220.627 349.802 220.403 349.913 220.236 349.913L220.348 349.969ZM153.258 348.349L219.677 348.573V299.639L180.854 299.527L176.385 325.167C176.385 325.167 176.273 325.446 176.217 325.558L153.314 348.405L153.258 348.349Z" fill="white"/>
<path d="M607.911 1020.58H566.127C566.127 1020.58 565.792 1020.52 565.624 1020.36L468.65 923.159C468.65 923.159 468.426 922.824 468.426 922.656V869.477L387.93 788.757C387.93 788.757 387.707 788.422 387.707 788.255V695.079L246.937 553.918L127.06 553.694V576.765L217.498 667.371C217.498 667.371 217.778 668.098 217.498 668.377L182.362 703.514C182.362 703.514 182.027 703.737 181.859 703.737C181.859 703.737 181.524 703.681 181.356 703.514L-47.562 474.204C-47.562 474.204 -47.7854 473.869 -47.7854 473.701V410.523C-47.7854 410.523 -47.7296 410.187 -47.562 410.02C-47.4503 409.908 -47.2268 409.796 -47.0592 409.796H-24.6031L37.235 348.182C37.3467 348.07 37.5702 347.958 37.7378 347.958L229.285 348.517C229.285 348.517 229.62 348.573 229.788 348.74L405.247 524.926L511.718 525.149L542.386 496.493L555.011 483.868C555.011 483.868 555.346 483.645 555.513 483.645C555.513 483.645 555.849 483.7 556.016 483.868L573.221 501.185C573.221 501.185 573.445 501.52 573.445 501.688V618.884C573.445 618.884 573.389 619.275 573.221 619.387L515.07 677.594V886.849L608.358 980.416C608.358 980.416 608.581 980.752 608.581 980.919V1019.85C608.581 1020.25 608.246 1020.52 607.911 1020.52V1020.58ZM566.406 1019.18H607.241V981.199L513.953 887.631C513.953 887.631 513.729 887.296 513.729 887.129V677.315C513.729 677.315 513.785 676.98 513.953 676.812L572.104 618.605V501.967L555.569 485.376L543.392 497.554L512.5 526.378C512.5 526.378 512.221 526.546 511.998 526.546L404.968 526.322C404.968 526.322 404.633 526.267 404.465 526.099L229.006 349.913L38.0729 349.355L-23.7652 411.025C-23.7652 411.025 -24.1003 411.249 -24.2679 411.249H-46.333V473.366L181.859 702.005L215.99 667.874L125.886 577.547C125.886 577.547 125.663 577.212 125.663 577.044V552.968C125.663 552.968 125.719 552.633 125.886 552.465C125.998 552.354 126.222 552.242 126.389 552.242L247.272 552.465C247.272 552.465 247.608 552.521 247.775 552.689L388.936 694.241C388.936 694.241 389.159 694.576 389.159 694.743V787.92L469.655 868.639C469.655 868.639 469.878 868.974 469.878 869.141V922.321L566.406 1019.07V1019.18ZM462.784 689.548H436.474C436.474 689.548 436.138 689.437 435.971 689.325L333.801 586.82C333.801 586.82 333.578 586.485 333.578 586.317V558.387C333.578 558.387 333.634 558.051 333.801 557.884C333.969 557.716 334.136 557.66 334.304 557.66L399.773 557.772C399.773 557.772 400.108 557.828 400.276 557.996L464.013 621.956C464.013 621.956 464.237 622.292 464.237 622.459L463.51 688.766C463.51 689.157 463.175 689.437 462.84 689.437L462.784 689.548ZM436.753 688.152H462.058L462.784 622.85L399.438 559.28L334.974 559.169V586.094L436.697 688.152H436.753Z" fill="white"/>
<path d="M404.969 526.322C404.969 526.322 404.633 526.267 404.466 526.099L228.783 349.746C228.783 349.746 228.56 349.299 228.615 349.075L239.843 307.962C239.843 307.962 240.123 307.515 240.346 307.459C240.57 307.459 240.849 307.459 241.017 307.627L428.877 496.269C428.877 496.269 429.156 496.94 428.877 497.219L405.415 526.043C405.415 526.043 405.08 526.267 404.913 526.322H404.969ZM230.068 349.075L404.913 524.591L427.481 496.884L240.905 309.526L230.068 349.075Z" fill="white"/>
<path d="M542.889 497.777L428.43 497.554C428.43 497.554 428.095 497.498 427.927 497.331L240.067 308.688C240.067 308.688 239.843 308.353 239.843 308.185V214.004C239.843 214.004 239.899 213.668 240.067 213.501C240.178 213.389 240.402 213.277 240.569 213.277L352.347 213.724C352.347 213.724 352.683 213.78 352.85 213.948L588.863 451.133C588.863 451.133 589.142 451.86 588.863 452.139L543.448 497.554C543.448 497.554 543.113 497.777 542.945 497.777H542.889ZM428.709 496.157L542.554 496.381L587.299 451.636L352.012 215.121L241.24 214.73V307.906L428.709 496.157Z" fill="white"/>
<path d="M229.341 349.969H220.348C219.957 349.969 219.677 349.634 219.677 349.243V298.912L239.955 213.836C240.011 213.501 240.346 213.277 240.737 213.277C241.072 213.277 241.351 213.613 241.351 213.948V308.129C241.351 308.129 241.351 308.241 241.351 308.297L230.123 349.411C230.067 349.69 229.788 349.913 229.453 349.913L229.341 349.969ZM221.074 348.573H228.838L239.899 308.073V219.981L221.018 299.136V348.629L221.074 348.573Z" fill="white"/>
<path d="M157.448 306.789L63.4899 306.454C63.4899 306.454 63.1547 306.398 62.9871 306.23L17.237 260.312C17.237 260.312 17.0135 259.977 17.0135 259.81V216.294L-115.768 83.0653L-171.741 82.8419C-171.741 82.8419 -172.076 82.786 -172.244 82.6185L-214.475 40.2758C-214.475 40.2758 -214.754 39.7731 -214.642 39.4938C-214.53 39.2145 -214.307 39.0469 -213.972 39.0469H-91.301C-91.301 39.0469 -90.9658 39.0469 -90.7982 39.2145L120.189 250.928L183.479 251.151C183.87 251.151 184.15 251.486 184.15 251.821V279.975C184.15 279.975 184.094 280.311 183.926 280.478L157.895 306.398C157.895 306.398 157.56 306.621 157.392 306.621L157.448 306.789ZM63.7691 305.057L157.169 305.392L182.753 279.864V252.659L119.854 252.436C119.854 252.436 119.518 252.38 119.351 252.212L-91.5803 40.4993H-212.24L-171.406 81.4454L-115.433 81.6688C-115.433 81.6688 -115.098 81.7247 -114.93 81.8923L18.2425 215.512C18.2425 215.512 18.4659 215.847 18.4659 216.015V259.53L63.825 305.057H63.7691Z" fill="white"/>
<path d="M-24.2679 411.305H-40.6352C-41.0262 411.305 -41.3055 410.969 -41.3055 410.578V360.583L-70.465 360.471C-70.465 360.471 -70.8001 360.415 -70.9677 360.248L-195.203 235.733C-195.203 235.733 -195.426 235.398 -195.426 235.231V101.108C-195.426 100.829 -195.258 100.55 -194.979 100.438C-194.7 100.326 -194.421 100.438 -194.197 100.606L-154.871 140.043C-154.871 140.043 -154.648 140.379 -154.648 140.546L-154.871 185.57L-35.5519 305.224L21.2588 305.392C21.2588 305.392 21.594 305.448 21.7615 305.616L64.2718 348.237C64.2718 348.237 64.5511 348.74 64.4394 349.02C64.3276 349.299 64.1042 349.466 63.769 349.466H38.2405L-23.5976 411.081C-23.7093 411.193 -23.9327 411.305 -24.1003 411.305H-24.2679ZM-39.9649 409.852H-24.5472L37.2909 348.237C37.4026 348.126 37.6261 348.014 37.7937 348.014H61.9256L20.8119 306.844L-35.9429 306.677C-35.9429 306.677 -36.278 306.621 -36.4456 306.453L-156.156 186.352C-156.156 186.352 -156.379 186.017 -156.379 185.85L-156.156 140.826L-194.085 102.784V234.895L-70.2415 359.019L-40.6911 359.13C-40.3 359.13 -40.0207 359.466 -40.0207 359.801V409.796L-39.9649 409.852Z" fill="white"/>
<path d="M63.7691 349.466C63.7691 349.466 63.2663 349.411 63.0988 349.243L20.5885 306.621C20.5885 306.621 20.4209 306.342 20.3651 306.174L17.0134 259.865C17.0134 259.586 17.1251 259.307 17.4045 259.195C17.6838 259.083 17.9631 259.139 18.1865 259.363L63.9367 305.28C63.9367 305.28 64.1601 305.56 64.1601 305.783L64.4394 348.796C64.4394 348.796 64.3835 349.187 64.216 349.299C64.1042 349.411 63.8808 349.522 63.7132 349.522L63.7691 349.466ZM21.8175 305.839L63.0988 347.232L62.8194 306.062L18.5775 261.709L21.8175 305.895V305.839Z" fill="white"/>
<path d="M21.091 306.844L-29.5749 306.677C-29.5749 306.677 -29.9101 306.621 -30.0776 306.453L-78.7326 257.631C-78.7326 257.631 -78.9002 257.407 -78.9002 257.296L-116.104 82.5067C-116.159 82.2274 -116.048 81.8922 -115.768 81.7246C-115.489 81.5571 -115.154 81.6129 -114.931 81.8364L18.2421 215.456C18.2421 215.456 18.4655 215.791 18.4655 215.959V259.754L21.8172 306.062C21.8172 306.062 21.8172 306.453 21.6496 306.565C21.5379 306.733 21.3145 306.789 21.1469 306.789L21.091 306.844ZM-29.2956 305.28L20.3648 305.448L17.0132 259.865V216.294L-114.316 84.5177L-77.6154 256.793L-29.2956 305.28Z" fill="white"/>
<path d="M151.358 349.746L63.7126 349.467C63.3216 349.467 63.0423 349.131 63.0423 348.796L62.7629 305.783C62.7629 305.783 62.8188 305.392 62.9864 305.281C63.154 305.169 63.3216 305.057 63.4892 305.057L157.447 305.392C157.447 305.392 157.838 305.504 157.95 305.616C158.062 305.783 158.118 305.951 158.118 306.174L152.029 349.131C152.029 349.467 151.694 349.746 151.358 349.746ZM64.4388 348.07L150.744 348.349L156.665 306.789L64.2153 306.51L64.4947 348.126L64.4388 348.07Z" fill="white"/>
<path d="M151.527 349.746C151.527 349.746 151.303 349.746 151.192 349.69C150.912 349.578 150.745 349.243 150.801 348.964L156.722 306.007C156.722 306.007 156.834 305.727 156.945 305.616L182.977 279.696C182.977 279.696 183.535 279.417 183.815 279.584C184.094 279.752 184.261 280.031 184.206 280.311L176.329 325.223C176.329 325.223 176.217 325.502 176.162 325.614L152.086 349.634C152.086 349.634 151.75 349.857 151.583 349.857L151.527 349.746ZM158.119 306.398L152.477 347.064L174.933 324.664L182.418 282.154L158.119 306.342V306.398Z" fill="white"/>
<path d="M220.348 349.969L151.527 349.746C151.247 349.746 150.968 349.578 150.856 349.299C150.745 349.02 150.856 348.74 151.024 348.517L174.933 324.664L179.513 298.633C179.569 298.298 179.848 298.074 180.184 298.074L220.292 298.186C220.683 298.186 220.962 298.521 220.962 298.857V349.187C220.962 349.187 220.906 349.522 220.739 349.69C220.627 349.802 220.403 349.913 220.236 349.913L220.348 349.969ZM153.258 348.349L219.677 348.573V299.639L180.854 299.527L176.385 325.167C176.385 325.167 176.273 325.446 176.217 325.558L153.314 348.405L153.258 348.349Z" fill="white"/>
<path d="M851.521 1020.58H809.737C809.346 1020.58 809.067 1020.25 809.067 1019.91V980.975C809.067 980.975 809.123 980.64 809.29 980.472L902.578 886.905V677.65L844.427 619.443C844.427 619.443 844.203 619.108 844.203 618.94V501.744C844.203 501.744 844.259 501.408 844.427 501.241L861.632 483.924C861.632 483.924 862.358 483.645 862.638 483.924L875.318 496.604L905.93 525.205L1012.4 524.982L1187.86 348.796C1187.86 348.796 1188.2 348.573 1188.36 348.573L1379.91 348.014C1379.91 348.014 1380.25 348.07 1380.41 348.238L1442.25 409.908H1464.71V409.852C1464.88 409.852 1465.04 409.908 1465.21 410.076C1465.32 410.187 1465.43 410.411 1465.43 410.578V473.757C1465.43 473.757 1465.38 474.148 1465.21 474.26L1236.29 703.569C1236.29 703.569 1235.57 703.849 1235.29 703.569L1200.15 668.433C1200.15 668.433 1199.87 667.707 1200.15 667.427L1290.59 576.821V553.75L1170.71 553.974L1029.94 695.134V788.311C1029.94 788.311 1029.89 788.646 1029.72 788.813L949.222 869.532V922.712C949.222 922.712 949.166 923.047 948.999 923.215L852.024 1020.41C852.024 1020.41 851.689 1020.64 851.521 1020.64V1020.58ZM810.408 1019.18H851.242L947.77 922.433V869.253C947.77 869.253 947.826 868.918 947.993 868.75L1028.49 788.031V694.855C1028.49 694.855 1028.54 694.52 1028.71 694.352L1169.87 552.801C1169.87 552.801 1170.21 552.577 1170.38 552.577L1291.26 552.354C1291.26 552.354 1291.59 552.41 1291.76 552.577C1291.87 552.689 1291.99 552.912 1291.99 553.08V577.156C1291.99 577.156 1291.93 577.491 1291.76 577.659L1201.66 667.986L1235.79 702.117L1463.98 473.478V411.305H1441.92C1441.92 411.305 1441.58 411.305 1441.41 411.137L1379.58 349.467L1188.64 350.025L1013.18 526.211C1013.18 526.211 1012.85 526.434 1012.68 526.434L905.651 526.658C905.651 526.658 905.315 526.602 905.148 526.49L874.313 497.666L862.135 485.488L845.6 502.079V618.717L903.751 676.924C903.751 676.924 903.975 677.259 903.975 677.426V887.24C903.975 887.24 903.919 887.576 903.751 887.743L810.463 981.31V1019.3L810.408 1019.18ZM954.864 689.548C954.473 689.548 954.194 689.213 954.194 688.878L953.468 622.571C953.468 622.571 953.523 622.18 953.691 622.068L1017.43 558.107C1017.43 558.107 1017.76 557.884 1017.93 557.884L1083.4 557.772C1083.4 557.772 1083.79 557.828 1083.9 557.996C1084.01 558.107 1084.13 558.331 1084.13 558.498V586.429C1084.13 586.429 1084.07 586.764 1083.9 586.932L981.733 689.437C981.733 689.437 981.398 689.66 981.23 689.66H954.92L954.864 689.548ZM954.864 622.794L955.59 688.152H980.895L1082.62 586.038V559.113L1018.15 559.225L954.808 622.794H954.864Z" fill="white"/>
<path d="M1012.62 526.322C1012.62 526.322 1012.23 526.211 1012.12 526.043L988.716 497.219C988.716 497.219 988.492 496.548 988.716 496.269L1176.58 307.626C1176.58 307.626 1177.02 307.403 1177.25 307.459C1177.47 307.515 1177.69 307.682 1177.75 307.962L1188.98 349.075C1188.98 349.075 1188.98 349.578 1188.81 349.746L1013.13 526.099C1013.13 526.099 1012.79 526.322 1012.62 526.322ZM990.112 496.828L1012.68 524.535L1187.52 349.019L1176.69 309.47L990.112 496.828Z" fill="white"/>
<path d="M874.759 497.777C874.759 497.777 874.424 497.722 874.256 497.554L828.841 452.139C828.841 452.139 828.562 451.413 828.841 451.133L1064.85 213.948C1064.85 213.948 1065.13 213.724 1065.36 213.724L1177.13 213.277C1177.13 213.277 1177.47 213.333 1177.64 213.501C1177.75 213.613 1177.86 213.836 1177.86 214.004V308.185C1177.86 308.185 1177.8 308.52 1177.64 308.688L989.776 497.331C989.776 497.331 989.441 497.554 989.274 497.554L874.815 497.777H874.759ZM830.293 451.636L875.038 496.381L988.883 496.157L1176.35 307.906V214.73L1065.58 215.121L830.293 451.636Z" fill="white"/>
<path d="M1188.31 349.969C1187.97 349.969 1187.69 349.746 1187.64 349.467L1176.41 308.353C1176.41 308.353 1176.41 308.241 1176.41 308.185V214.004C1176.41 213.668 1176.69 213.333 1177.02 213.333C1177.36 213.333 1177.69 213.501 1177.8 213.892L1198.03 298.801V349.299C1198.03 349.69 1197.75 349.969 1197.36 349.969H1188.36H1188.31ZM1177.75 308.074L1188.81 348.573H1196.57V298.912L1177.75 219.925V308.074Z" fill="white"/>
<path d="M1260.14 306.789C1260.14 306.789 1259.81 306.733 1259.64 306.565L1233.61 280.646C1233.61 280.646 1233.39 280.311 1233.39 280.143V251.989C1233.39 251.598 1233.72 251.319 1234.06 251.319L1297.35 251.095L1508.34 39.3821C1508.34 39.3821 1508.67 39.1587 1508.84 39.1587H1631.51C1631.79 39.1587 1632.07 39.3263 1632.18 39.6056C1632.29 39.8849 1632.18 40.1642 1632.01 40.3876L1589.78 82.7303C1589.78 82.7303 1589.5 82.9537 1589.28 82.9537L1533.3 83.1772L1400.52 216.406V259.921C1400.52 259.921 1400.47 260.257 1400.3 260.424L1354.55 306.342C1354.55 306.342 1354.27 306.565 1354.05 306.565L1260.09 306.9L1260.14 306.789ZM1234.84 279.864L1260.42 305.392L1353.82 305.057L1399.18 259.53V216.015C1399.18 216.015 1399.24 215.624 1399.41 215.512L1532.58 81.8924C1532.58 81.8924 1532.86 81.6689 1533.08 81.6689L1589.05 81.4455L1629.89 40.4994H1509.23L1298.24 252.213C1298.13 252.324 1297.96 252.436 1297.74 252.436L1234.84 252.659V279.864Z" fill="white"/>
<path d="M1441.92 411.304C1441.92 411.304 1441.58 411.249 1441.41 411.081L1379.57 349.411H1354.05C1353.77 349.466 1353.49 349.299 1353.38 349.019C1353.26 348.74 1353.38 348.461 1353.54 348.237L1396.05 305.615C1396.05 305.615 1396.33 305.392 1396.56 305.392L1453.37 305.224L1572.69 185.57L1572.46 140.546C1572.46 140.546 1572.52 140.211 1572.69 140.043L1612.01 100.606C1612.01 100.606 1612.51 100.326 1612.79 100.438C1613.07 100.55 1613.24 100.773 1613.24 101.108V235.231C1613.24 235.231 1613.19 235.566 1613.02 235.733L1488.78 360.248C1488.78 360.248 1488.45 360.471 1488.28 360.471L1459.12 360.583V410.578C1459.12 410.969 1458.79 411.249 1458.45 411.249H1442.08L1441.92 411.304ZM1379.85 348.014C1379.85 348.014 1380.19 348.07 1380.36 348.237L1442.19 409.908H1457.61V359.912C1457.61 359.521 1457.95 359.242 1458.28 359.242L1487.83 359.13L1611.68 235.007V102.896L1573.75 140.937L1573.97 185.961C1573.97 185.961 1573.91 186.296 1573.75 186.464L1454.04 306.565C1454.04 306.565 1453.76 306.789 1453.53 306.789L1396.72 306.956L1355.61 348.182H1379.74L1379.85 348.014Z" fill="white"/>
<path d="M1354.05 349.466H1353.88C1353.88 349.466 1353.49 349.411 1353.38 349.243C1353.26 349.131 1353.15 348.908 1353.15 348.74L1353.43 305.727C1353.43 305.727 1353.49 305.392 1353.66 305.224L1399.41 259.307C1399.41 259.307 1399.91 259.027 1400.19 259.139C1400.47 259.251 1400.63 259.53 1400.58 259.809L1397.23 306.118C1397.23 306.118 1397.17 306.453 1397 306.565L1354.49 349.187C1354.49 349.187 1354.16 349.411 1353.99 349.411L1354.05 349.466ZM1354.83 306.007L1354.55 347.176L1395.83 305.783L1399.07 261.597L1354.83 305.951V306.007Z" fill="white"/>
<path d="M1396.5 306.845C1396.5 306.845 1396.11 306.789 1396 306.621C1395.89 306.454 1395.77 306.286 1395.83 306.118L1399.18 259.81V216.07C1399.18 216.07 1399.24 215.679 1399.4 215.568L1532.58 81.9482C1532.58 81.9482 1533.14 81.6689 1533.42 81.8365C1533.69 82.0041 1533.81 82.2834 1533.75 82.6186L1496.55 257.408C1496.55 257.408 1496.44 257.687 1496.38 257.743L1447.72 306.565C1447.72 306.565 1447.45 306.789 1447.22 306.789L1396.56 306.956L1396.5 306.845ZM1400.58 216.294V259.81L1397.23 305.448L1446.89 305.281L1495.21 256.793L1531.91 84.5178L1400.58 216.294Z" fill="white"/>
<path d="M1266.23 349.746C1265.9 349.746 1265.56 349.467 1265.56 349.131L1259.47 306.174C1259.47 306.174 1259.47 305.783 1259.64 305.616C1259.75 305.448 1259.98 305.392 1260.14 305.392L1354.1 305.057C1354.1 305.057 1354.49 305.113 1354.61 305.281C1354.72 305.392 1354.83 305.616 1354.83 305.783L1354.55 348.796C1354.55 349.187 1354.21 349.467 1353.88 349.467L1266.29 349.746H1266.23ZM1260.93 306.789L1266.85 348.349L1353.15 348.07L1353.43 306.454L1260.98 306.733L1260.93 306.789Z" fill="white"/>
<path d="M1266.12 349.746C1266.12 349.746 1265.79 349.69 1265.62 349.522L1241.54 325.502C1241.54 325.502 1241.37 325.279 1241.37 325.111L1233.5 280.199C1233.5 279.92 1233.61 279.584 1233.89 279.473C1234.17 279.305 1234.5 279.361 1234.73 279.584L1260.76 305.504C1260.76 305.504 1260.93 305.727 1260.98 305.895L1266.9 348.852C1266.9 349.131 1266.79 349.467 1266.51 349.578C1266.4 349.578 1266.29 349.634 1266.18 349.634L1266.12 349.746ZM1242.72 324.72L1265.17 347.12L1259.53 306.454L1235.23 282.266L1242.72 324.776V324.72Z" fill="white"/>
<path d="M1197.3 349.969C1197.3 349.969 1196.91 349.913 1196.8 349.746C1196.69 349.634 1196.57 349.411 1196.57 349.243V298.912C1196.57 298.521 1196.91 298.242 1197.25 298.242L1237.35 298.13C1237.69 298.13 1237.97 298.354 1238.02 298.689L1242.6 324.72L1266.51 348.573C1266.51 348.573 1266.79 349.075 1266.68 349.355C1266.57 349.634 1266.35 349.802 1266.01 349.802L1197.19 350.025L1197.3 349.969ZM1197.97 299.638V348.573L1264.39 348.349L1241.49 325.502C1241.49 325.502 1241.32 325.279 1241.32 325.111L1236.85 299.471L1198.03 299.583L1197.97 299.638Z" fill="white"/>
<path d="M851.521 1020.58H809.737C809.346 1020.58 809.067 1020.25 809.067 1019.91V980.975C809.067 980.975 809.123 980.64 809.29 980.472L902.578 886.905V677.65L844.427 619.443C844.427 619.443 844.203 619.108 844.203 618.94V501.744C844.203 501.744 844.259 501.408 844.427 501.241L861.632 483.924C861.632 483.924 862.358 483.645 862.638 483.924L875.318 496.604L905.93 525.205L1012.4 524.982L1187.86 348.796C1187.86 348.796 1188.2 348.573 1188.36 348.573L1379.91 348.014C1379.91 348.014 1380.25 348.07 1380.41 348.238L1442.25 409.908H1464.71V409.852C1464.88 409.852 1465.04 409.908 1465.21 410.076C1465.32 410.187 1465.43 410.411 1465.43 410.578V473.757C1465.43 473.757 1465.38 474.148 1465.21 474.26L1236.29 703.569C1236.29 703.569 1235.57 703.849 1235.29 703.569L1200.15 668.433C1200.15 668.433 1199.87 667.707 1200.15 667.427L1290.59 576.821V553.75L1170.71 553.974L1029.94 695.134V788.311C1029.94 788.311 1029.89 788.646 1029.72 788.813L949.222 869.532V922.712C949.222 922.712 949.166 923.047 948.999 923.215L852.024 1020.41C852.024 1020.41 851.689 1020.64 851.521 1020.64V1020.58ZM810.408 1019.18H851.242L947.77 922.433V869.253C947.77 869.253 947.826 868.918 947.993 868.75L1028.49 788.031V694.855C1028.49 694.855 1028.54 694.52 1028.71 694.352L1169.87 552.801C1169.87 552.801 1170.21 552.577 1170.38 552.577L1291.26 552.354C1291.26 552.354 1291.59 552.41 1291.76 552.577C1291.87 552.689 1291.99 552.912 1291.99 553.08V577.156C1291.99 577.156 1291.93 577.491 1291.76 577.659L1201.66 667.986L1235.79 702.117L1463.98 473.478V411.305H1441.92C1441.92 411.305 1441.58 411.305 1441.41 411.137L1379.58 349.467L1188.64 350.025L1013.18 526.211C1013.18 526.211 1012.85 526.434 1012.68 526.434L905.651 526.658C905.651 526.658 905.315 526.602 905.148 526.49L874.313 497.666L862.135 485.488L845.6 502.079V618.717L903.751 676.924C903.751 676.924 903.975 677.259 903.975 677.426V887.24C903.975 887.24 903.919 887.576 903.751 887.743L810.463 981.31V1019.3L810.408 1019.18ZM954.864 689.548C954.473 689.548 954.194 689.213 954.194 688.878L953.468 622.571C953.468 622.571 953.523 622.18 953.691 622.068L1017.43 558.107C1017.43 558.107 1017.76 557.884 1017.93 557.884L1083.4 557.772C1083.4 557.772 1083.79 557.828 1083.9 557.996C1084.01 558.107 1084.13 558.331 1084.13 558.498V586.429C1084.13 586.429 1084.07 586.764 1083.9 586.932L981.733 689.437C981.733 689.437 981.398 689.66 981.23 689.66H954.92L954.864 689.548ZM954.864 622.794L955.59 688.152H980.895L1082.62 586.038V559.113L1018.15 559.225L954.808 622.794H954.864Z" fill="white"/>
<path d="M1012.62 526.322C1012.62 526.322 1012.23 526.211 1012.12 526.043L988.716 497.219C988.716 497.219 988.492 496.548 988.716 496.269L1176.58 307.626C1176.58 307.626 1177.02 307.403 1177.25 307.459C1177.47 307.515 1177.69 307.682 1177.75 307.962L1188.98 349.075C1188.98 349.075 1188.98 349.578 1188.81 349.746L1013.13 526.099C1013.13 526.099 1012.79 526.322 1012.62 526.322ZM990.112 496.828L1012.68 524.535L1187.52 349.019L1176.69 309.47L990.112 496.828Z" fill="white"/>
<path d="M874.759 497.777C874.759 497.777 874.424 497.722 874.256 497.554L828.841 452.139C828.841 452.139 828.562 451.413 828.841 451.133L1064.85 213.948C1064.85 213.948 1065.13 213.724 1065.36 213.724L1177.13 213.277C1177.13 213.277 1177.47 213.333 1177.64 213.501C1177.75 213.613 1177.86 213.836 1177.86 214.004V308.185C1177.86 308.185 1177.8 308.52 1177.64 308.688L989.776 497.331C989.776 497.331 989.441 497.554 989.274 497.554L874.815 497.777H874.759ZM830.293 451.636L875.038 496.381L988.883 496.157L1176.35 307.906V214.73L1065.58 215.121L830.293 451.636Z" fill="white"/>
<path d="M1188.31 349.969C1187.97 349.969 1187.69 349.746 1187.64 349.467L1176.41 308.353C1176.41 308.353 1176.41 308.241 1176.41 308.185V214.004C1176.41 213.668 1176.69 213.333 1177.02 213.333C1177.36 213.333 1177.69 213.501 1177.8 213.892L1198.03 298.801V349.299C1198.03 349.69 1197.75 349.969 1197.36 349.969H1188.36H1188.31ZM1177.75 308.074L1188.81 348.573H1196.57V298.912L1177.75 219.925V308.074Z" fill="white"/>
<path d="M1260.14 306.789C1260.14 306.789 1259.81 306.733 1259.64 306.565L1233.61 280.646C1233.61 280.646 1233.39 280.311 1233.39 280.143V251.989C1233.39 251.598 1233.72 251.319 1234.06 251.319L1297.35 251.095L1508.34 39.3821C1508.34 39.3821 1508.67 39.1587 1508.84 39.1587H1631.51C1631.79 39.1587 1632.07 39.3263 1632.18 39.6056C1632.29 39.8849 1632.18 40.1642 1632.01 40.3876L1589.78 82.7303C1589.78 82.7303 1589.5 82.9537 1589.28 82.9537L1533.3 83.1772L1400.52 216.406V259.921C1400.52 259.921 1400.47 260.257 1400.3 260.424L1354.55 306.342C1354.55 306.342 1354.27 306.565 1354.05 306.565L1260.09 306.9L1260.14 306.789ZM1234.84 279.864L1260.42 305.392L1353.82 305.057L1399.18 259.53V216.015C1399.18 216.015 1399.24 215.624 1399.41 215.512L1532.58 81.8924C1532.58 81.8924 1532.86 81.6689 1533.08 81.6689L1589.05 81.4455L1629.89 40.4994H1509.23L1298.24 252.213C1298.13 252.324 1297.96 252.436 1297.74 252.436L1234.84 252.659V279.864Z" fill="white"/>
<path d="M1441.92 411.304C1441.92 411.304 1441.58 411.249 1441.41 411.081L1379.57 349.411H1354.05C1353.77 349.466 1353.49 349.299 1353.38 349.019C1353.26 348.74 1353.38 348.461 1353.54 348.237L1396.05 305.615C1396.05 305.615 1396.33 305.392 1396.56 305.392L1453.37 305.224L1572.69 185.57L1572.46 140.546C1572.46 140.546 1572.52 140.211 1572.69 140.043L1612.01 100.606C1612.01 100.606 1612.51 100.326 1612.79 100.438C1613.07 100.55 1613.24 100.773 1613.24 101.108V235.231C1613.24 235.231 1613.19 235.566 1613.02 235.733L1488.78 360.248C1488.78 360.248 1488.45 360.471 1488.28 360.471L1459.12 360.583V410.578C1459.12 410.969 1458.79 411.249 1458.45 411.249H1442.08L1441.92 411.304ZM1379.85 348.014C1379.85 348.014 1380.19 348.07 1380.36 348.237L1442.19 409.908H1457.61V359.912C1457.61 359.521 1457.95 359.242 1458.28 359.242L1487.83 359.13L1611.68 235.007V102.896L1573.75 140.937L1573.97 185.961C1573.97 185.961 1573.91 186.296 1573.75 186.464L1454.04 306.565C1454.04 306.565 1453.76 306.789 1453.53 306.789L1396.72 306.956L1355.61 348.182H1379.74L1379.85 348.014Z" fill="white"/>
<path d="M1354.05 349.466H1353.88C1353.88 349.466 1353.49 349.411 1353.38 349.243C1353.26 349.131 1353.15 348.908 1353.15 348.74L1353.43 305.727C1353.43 305.727 1353.49 305.392 1353.66 305.224L1399.41 259.307C1399.41 259.307 1399.91 259.027 1400.19 259.139C1400.47 259.251 1400.63 259.53 1400.58 259.809L1397.23 306.118C1397.23 306.118 1397.17 306.453 1397 306.565L1354.49 349.187C1354.49 349.187 1354.16 349.411 1353.99 349.411L1354.05 349.466ZM1354.83 306.007L1354.55 347.176L1395.83 305.783L1399.07 261.597L1354.83 305.951V306.007Z" fill="white"/>
<path d="M1396.5 306.845C1396.5 306.845 1396.11 306.789 1396 306.621C1395.89 306.454 1395.77 306.286 1395.83 306.118L1399.18 259.81V216.07C1399.18 216.07 1399.24 215.679 1399.4 215.568L1532.58 81.9482C1532.58 81.9482 1533.14 81.6689 1533.42 81.8365C1533.69 82.0041 1533.81 82.2834 1533.75 82.6186L1496.55 257.408C1496.55 257.408 1496.44 257.687 1496.38 257.743L1447.72 306.565C1447.72 306.565 1447.45 306.789 1447.22 306.789L1396.56 306.956L1396.5 306.845ZM1400.58 216.294V259.81L1397.23 305.448L1446.89 305.281L1495.21 256.793L1531.91 84.5178L1400.58 216.294Z" fill="white"/>
<path d="M1266.23 349.746C1265.9 349.746 1265.56 349.467 1265.56 349.131L1259.47 306.174C1259.47 306.174 1259.47 305.783 1259.64 305.616C1259.75 305.448 1259.98 305.392 1260.14 305.392L1354.1 305.057C1354.1 305.057 1354.49 305.113 1354.61 305.281C1354.72 305.392 1354.83 305.616 1354.83 305.783L1354.55 348.796C1354.55 349.187 1354.21 349.467 1353.88 349.467L1266.29 349.746H1266.23ZM1260.93 306.789L1266.85 348.349L1353.15 348.07L1353.43 306.454L1260.98 306.733L1260.93 306.789Z" fill="white"/>
<path d="M1266.12 349.746C1266.12 349.746 1265.79 349.69 1265.62 349.522L1241.54 325.502C1241.54 325.502 1241.37 325.279 1241.37 325.111L1233.5 280.199C1233.5 279.92 1233.61 279.584 1233.89 279.473C1234.17 279.305 1234.5 279.361 1234.73 279.584L1260.76 305.504C1260.76 305.504 1260.93 305.727 1260.98 305.895L1266.9 348.852C1266.9 349.131 1266.79 349.467 1266.51 349.578C1266.4 349.578 1266.29 349.634 1266.18 349.634L1266.12 349.746ZM1242.72 324.72L1265.17 347.12L1259.53 306.454L1235.23 282.266L1242.72 324.776V324.72Z" fill="white"/>
<path d="M1197.3 349.969C1197.3 349.969 1196.91 349.913 1196.8 349.746C1196.69 349.634 1196.57 349.411 1196.57 349.243V298.912C1196.57 298.521 1196.91 298.242 1197.25 298.242L1237.35 298.13C1237.69 298.13 1237.97 298.354 1238.02 298.689L1242.6 324.72L1266.51 348.573C1266.51 348.573 1266.79 349.075 1266.68 349.355C1266.57 349.634 1266.35 349.802 1266.01 349.802L1197.19 350.025L1197.3 349.969ZM1197.97 299.638V348.573L1264.39 348.349L1241.49 325.502C1241.49 325.502 1241.32 325.279 1241.32 325.111L1236.85 299.471L1198.03 299.583L1197.97 299.638Z" fill="white"/>
</g>
<path d="M674.889 636.369H650.198C649.807 636.369 649.472 636.201 649.193 635.978L564.228 551.013H391.339C390.948 551.013 390.612 550.845 390.333 550.622L61.4794 221.768C61.4794 221.768 61.0884 221.154 61.0884 220.763V150.936C61.0884 150.545 61.256 150.21 61.4794 149.931L121.474 89.9362C121.474 89.9362 122.089 89.5452 122.48 89.5452H437.536C437.927 89.5452 438.262 89.7127 438.541 89.9362L565.01 216.406H621.486C622.268 216.406 622.882 217.02 622.882 217.802C622.882 218.584 622.268 219.199 621.486 219.199H564.452C564.061 219.199 563.726 219.031 563.446 218.808L436.977 92.3382H123.038L63.8814 151.495V220.204L391.897 548.22H564.787C565.178 548.22 565.513 548.387 565.793 548.611L650.757 633.575H674.889C675.671 633.575 676.286 634.19 676.286 634.972C676.286 635.754 675.671 636.369 674.889 636.369Z" fill="white"/>
<path d="M308.33 123.62H90.4719C90.0808 123.62 89.8015 123.285 89.8015 122.95C89.8015 122.615 90.1367 122.28 90.4719 122.28H308.05L338.662 91.6678C338.662 91.6678 339.389 91.3885 339.668 91.6678C339.947 91.9471 339.947 92.394 339.668 92.6733L308.833 123.509C308.833 123.509 308.497 123.732 308.33 123.732V123.62Z" fill="white"/>
<path d="M302.8 387.061H273.864C273.864 387.061 273.528 387.005 273.361 386.838L137.954 251.431C137.954 251.431 137.674 250.704 137.954 250.425C138.233 250.146 138.68 250.146 138.959 250.425L274.199 385.665H302.855C303.246 385.665 303.526 386 303.526 386.335C303.526 386.67 303.191 387.005 302.855 387.005L302.8 387.061Z" fill="white"/>
<path d="M599.253 185.179H570.262C570.262 185.179 569.926 185.123 569.759 184.956L525.74 140.937C525.74 140.937 525.461 140.211 525.74 139.932C526.02 139.653 526.466 139.653 526.746 139.932L570.541 183.727H599.198C599.589 183.727 599.868 184.062 599.868 184.397C599.868 184.732 599.533 185.068 599.198 185.068L599.253 185.179Z" fill="white"/>
<path d="M18.1307 199.368H-74.3751C-74.3751 199.368 -74.7662 199.312 -74.8779 199.144L-177.495 96.5277C-177.495 96.5277 -177.774 95.8015 -177.495 95.5222C-177.215 95.2429 -176.768 95.2429 -176.489 95.5222L-74.0958 197.915H17.4604V165.963C17.4604 165.572 17.7955 165.293 18.1307 165.293C18.4659 165.293 18.801 165.628 18.801 165.963V198.586C18.801 198.977 18.4659 199.256 18.1307 199.256V199.368Z" fill="white"/>
<path d="M666.063 435.101H606.627C606.627 435.101 606.292 435.045 606.124 434.878L525.796 354.55C525.796 354.55 525.573 354.215 525.573 354.047V318.631C525.573 318.24 525.908 317.961 526.243 317.961H634.334C634.725 317.961 635.004 318.296 635.004 318.631C635.004 318.966 634.669 319.301 634.334 319.301H526.969V353.768L606.906 433.705H666.063C666.454 433.705 666.734 434.04 666.734 434.375C666.734 434.71 666.398 435.045 666.063 435.045V435.101Z" fill="white"/>
<path d="M526.299 319.357C526.299 319.357 525.963 319.301 525.796 319.134L391.003 184.341C391.003 184.341 390.724 183.615 391.003 183.336C391.283 183.056 391.729 183.056 392.009 183.336L526.801 318.128C526.801 318.128 527.081 318.855 526.801 319.134C526.69 319.246 526.466 319.357 526.299 319.357Z" fill="white"/>
<path d="M343.075 277.797H303.525C303.134 277.797 302.855 277.462 302.855 277.126V237.577C302.855 237.186 303.19 236.906 303.525 236.906H343.075C343.466 236.906 343.745 237.242 343.745 237.577V277.126C343.745 277.517 343.41 277.797 343.075 277.797ZM304.195 276.4H342.349V238.247H304.195V276.4Z" fill="white"/>
<path d="M8.3557 121.609H-2.20203V138.926H8.3557V121.609Z" fill="white"/>
<path d="M510.043 444.71C510.043 444.71 509.708 444.654 509.54 444.486L342.628 277.573C342.628 277.573 342.348 276.847 342.628 276.568C342.907 276.289 343.354 276.289 343.633 276.568L510.546 443.481C510.546 443.481 510.825 444.207 510.546 444.486C510.434 444.598 510.211 444.71 510.043 444.71Z" fill="white"/>
<path d="M303.526 238.247C303.526 238.247 303.19 238.191 303.023 238.024L260.01 195.011C260.01 195.011 259.731 194.285 260.01 194.005C260.289 193.726 260.736 193.726 261.015 194.005L304.028 237.018C304.028 237.018 304.308 237.745 304.028 238.024C303.917 238.136 303.693 238.247 303.526 238.247Z" fill="white"/>
<path d="M607.521 277.797H569.256C568.865 277.797 568.586 277.462 568.586 277.126V264.781C568.586 264.39 568.921 264.111 569.256 264.111H607.521C607.912 264.111 608.191 264.446 608.191 264.781V277.126C608.191 277.517 607.856 277.797 607.521 277.797ZM569.927 276.4H606.795V265.452H569.927V276.4Z" fill="white"/>
<path d="M-442.276 844.563H-494.115C-494.115 844.563 -494.394 844.451 -494.394 844.283C-494.394 844.116 -494.282 844.004 -494.115 844.004H-442.387L239.285 162.332V0.279305C239.285 0.279305 239.396 0 239.564 0C239.731 0 239.843 0.111722 239.843 0.279305V162.444C239.843 162.444 239.843 162.611 239.787 162.667L-442.052 844.507C-442.052 844.507 -442.164 844.563 -442.276 844.563Z" fill="white"/>
<path d="M765.161 636.369H740.47C739.688 636.369 739.074 635.754 739.074 634.972C739.074 634.19 739.688 633.575 740.47 633.575H764.546L849.511 548.611C849.511 548.611 850.125 548.22 850.516 548.22H1023.41L1351.42 220.204V151.495L1292.27 92.3382H978.326L851.857 218.808C851.857 218.808 851.243 219.199 850.852 219.199H793.818C793.035 219.199 792.421 218.584 792.421 217.802C792.421 217.02 793.035 216.406 793.818 216.406H850.293L976.762 89.9362C976.762 89.9362 977.377 89.5452 977.768 89.5452H1292.82C1293.21 89.5452 1293.55 89.7127 1293.83 89.9362L1353.82 149.931C1353.82 149.931 1354.22 150.545 1354.22 150.936V220.763C1354.22 221.154 1354.05 221.489 1353.82 221.768L1024.97 550.622C1024.97 550.622 1024.36 551.013 1023.96 551.013H851.075L766.11 635.978C766.11 635.978 765.496 636.369 765.105 636.369H765.161Z" fill="white"/>
<path d="M1324.89 123.62H1107.03C1107.03 123.62 1106.7 123.565 1106.53 123.397L1075.69 92.5617C1075.69 92.5617 1075.41 91.8355 1075.69 91.5562C1075.97 91.2769 1076.42 91.2769 1076.7 91.5562L1107.31 122.168H1324.89C1325.28 122.168 1325.56 122.503 1325.56 122.838C1325.56 123.173 1325.22 123.509 1324.89 123.509V123.62Z" fill="white"/>
<path d="M1141.5 387.061H1112.56C1112.17 387.061 1111.89 386.726 1111.89 386.391C1111.89 386.055 1112.22 385.72 1112.56 385.72H1141.22L1276.46 250.481C1276.46 250.481 1277.18 250.202 1277.46 250.481C1277.74 250.76 1277.74 251.207 1277.46 251.486L1142 386.893C1142 386.893 1141.66 387.117 1141.5 387.117V387.061Z" fill="white"/>
<path d="M845.097 185.179H816.105C815.714 185.179 815.435 184.844 815.435 184.509C815.435 184.174 815.77 183.839 816.105 183.839H844.762L888.557 140.044C888.557 140.044 889.283 139.764 889.562 140.044C889.842 140.323 889.842 140.77 889.562 141.049L845.544 185.068C845.544 185.068 845.209 185.291 845.041 185.291L845.097 185.179Z" fill="white"/>
<path d="M1489.79 199.368H1397.28C1396.89 199.368 1396.61 199.033 1396.61 198.697V166.075C1396.61 165.684 1396.95 165.404 1397.28 165.404C1397.62 165.404 1397.95 165.739 1397.95 166.075V198.027H1489.51L1591.9 95.6339C1591.9 95.6339 1592.63 95.3546 1592.91 95.6339C1593.19 95.9132 1593.19 96.3601 1592.91 96.6394L1490.29 199.256C1490.29 199.256 1489.96 199.48 1489.79 199.48V199.368Z" fill="white"/>
<path d="M808.788 435.101H749.352C748.961 435.101 748.682 434.766 748.682 434.431C748.682 434.096 749.017 433.761 749.352 433.761H808.509L888.446 353.824V319.357H781.081C780.69 319.357 780.411 319.022 780.411 318.687C780.411 318.352 780.746 318.017 781.081 318.017H889.172C889.563 318.017 889.842 318.352 889.842 318.687V354.103C889.842 354.103 889.786 354.438 889.619 354.606L809.291 434.934C809.291 434.934 808.956 435.157 808.788 435.157V435.101Z" fill="white"/>
<path d="M889.116 319.357C889.116 319.357 888.78 319.301 888.613 319.134C888.333 318.855 888.333 318.408 888.613 318.128L1023.41 183.336C1023.41 183.336 1024.13 183.057 1024.41 183.336C1024.69 183.615 1024.69 184.062 1024.41 184.341L889.618 319.134C889.618 319.134 889.283 319.357 889.116 319.357Z" fill="white"/>
<path d="M1111.83 277.797H1072.28C1071.89 277.797 1071.61 277.462 1071.61 277.126V237.577C1071.61 237.186 1071.95 236.906 1072.28 236.906H1111.83C1112.23 236.906 1112.5 237.242 1112.5 237.577V277.126C1112.5 277.517 1112.17 277.797 1111.83 277.797ZM1072.96 276.4H1111.11V238.247H1072.96V276.4Z" fill="white"/>
<path d="M905.371 444.709C905.371 444.709 905.036 444.654 904.868 444.486C904.589 444.207 904.589 443.76 904.868 443.48L1071.78 276.568C1071.78 276.568 1072.51 276.288 1072.79 276.568C1073.07 276.847 1073.07 277.294 1072.79 277.573L905.874 444.486C905.874 444.486 905.538 444.709 905.371 444.709Z" fill="white"/>
<path d="M1111.83 238.247C1111.83 238.247 1111.5 238.191 1111.33 238.024C1111.05 237.744 1111.05 237.298 1111.33 237.018L1154.34 194.005C1154.34 194.005 1155.07 193.726 1155.35 194.005C1155.63 194.285 1155.63 194.731 1155.35 195.011L1112.34 238.024C1112.34 238.024 1112 238.247 1111.83 238.247Z" fill="white"/>
<path d="M846.103 277.797H807.838C807.447 277.797 807.167 277.462 807.167 277.126V264.781C807.167 264.39 807.503 264.111 807.838 264.111H846.103C846.494 264.111 846.773 264.446 846.773 264.781V277.126C846.773 277.517 846.438 277.797 846.103 277.797ZM808.508 276.4H845.376V265.452H808.508V276.4Z" fill="white"/>
<path d="M1909.53 844.563H1857.69C1857.69 844.563 1857.52 844.563 1857.47 844.507L1175.63 162.667C1175.63 162.667 1175.57 162.556 1175.57 162.444V0.279305C1175.57 0.279305 1175.68 0 1175.85 0C1176.02 0 1176.13 0.111722 1176.13 0.279305V162.332L1857.8 844.004H1909.53C1909.53 844.004 1909.81 844.116 1909.81 844.283C1909.81 844.451 1909.7 844.563 1909.53 844.563Z" fill="white"/>
</svg>
