<svg width="65" height="64" viewBox="0 0 65 64" fill="none" xmlns="http://www.w3.org/2000/svg">
<path d="M40.5839 26.8199L34.8239 22.7899C33.2539 21.6899 30.8439 21.7499 29.3339 22.9199L24.3239 26.8299C23.3239 27.6099 22.5339 29.2099 22.5339 30.4699V37.3699C22.5339 39.9199 24.6039 41.9999 27.1539 41.9999H37.9339C40.4839 41.9999 42.5539 39.9299 42.5539 37.3799V30.5999C42.5539 29.2499 41.6839 27.5899 40.5839 26.8199ZM33.2939 37.9999C33.2939 38.4099 32.9539 38.7499 32.5439 38.7499C32.1339 38.7499 31.7939 38.4099 31.7939 37.9999V34.9999C31.7939 34.5899 32.1339 34.2499 32.5439 34.2499C32.9539 34.2499 33.2939 34.5899 33.2939 34.9999V37.9999Z" fill="#8A8AAB"/>
</svg>
