<svg width="65" height="64" viewBox="0 0 65 64" fill="none" xmlns="http://www.w3.org/2000/svg">
<path d="M41.164 28.45C40.114 23.83 36.084 21.75 32.544 21.75C32.544 21.75 32.544 21.75 32.534 21.75C29.004 21.75 24.964 23.82 23.914 28.44C22.744 33.6 25.904 37.97 28.764 40.72C29.824 41.74 31.184 42.25 32.544 42.25C33.904 42.25 35.264 41.74 36.314 40.72C39.174 37.97 42.334 33.61 41.164 28.45ZM32.544 33.46C30.804 33.46 29.394 32.05 29.394 30.31C29.394 28.57 30.804 27.16 32.544 27.16C34.284 27.16 35.694 28.57 35.694 30.31C35.694 32.05 34.284 33.46 32.544 33.46Z" fill="#8A8AAB"/>
</svg>
