<svg width="36" height="36" viewBox="0 0 36 36" fill="none" xmlns="http://www.w3.org/2000/svg">
<g filter="url(#filter0_d_1_2216)">
<path d="M15.25 14.5C16.3546 14.5 17.25 15.3954 17.25 16.5V24C17.25 25.1046 16.3546 26 15.25 26H13.81C10.17 26 8 23.83 8 20.19V16.5C8 15.3954 8.89543 14.5 10 14.5H15.25Z" fill="black"/>
<path d="M26 14.5C27.1046 14.5 28 15.3954 28 16.5V20.19C28 23.83 25.83 26 22.19 26H20.75C19.6454 26 18.75 25.1046 18.75 24V16.5C18.75 15.3954 19.6454 14.5 20.75 14.5H26Z" fill="black"/>
<path d="M28 11.81C28 12.4672 27.4672 13 26.81 13H9.19C8.53278 13 8 12.4672 8 11.81C8 8.17 10.17 6 13.81 6H22.19C25.83 6 28 8.17 28 11.81Z" fill="black"/>
</g>
<defs>
<filter id="filter0_d_1_2216" x="-2" y="-2" width="40" height="40" filterUnits="userSpaceOnUse" color-interpolation-filters="sRGB">
<feFlood flood-opacity="0" result="BackgroundImageFix"/>
<feColorMatrix in="SourceAlpha" type="matrix" values="0 0 0 0 0 0 0 0 0 0 0 0 0 0 0 0 0 0 127 0" result="hardAlpha"/>
<feOffset dy="2"/>
<feGaussianBlur stdDeviation="4"/>
<feComposite in2="hardAlpha" operator="out"/>
<feColorMatrix type="matrix" values="0 0 0 0 1 0 0 0 0 1 0 0 0 0 1 0 0 0 0.5 0"/>
<feBlend mode="normal" in2="BackgroundImageFix" result="effect1_dropShadow_1_2216"/>
<feBlend mode="normal" in="SourceGraphic" in2="effect1_dropShadow_1_2216" result="shape"/>
</filter>
</defs>
</svg>
