<svg width="58" height="18" viewBox="0 0 58 18" fill="none" xmlns="http://www.w3.org/2000/svg">
<path d="M17.624 17.136H12.848L13.976 9.984H11.672L11.312 12.336H8.864L9.224 9.984H6.824L5.696 17.136H0.896L3.176 2.784H7.952L7.592 5.136H9.92L9.56 7.536H11.912L12.272 5.136H14.744L15.104 2.784H19.904L17.624 17.136ZM28.7917 2.736H24.0637L24.4477 0.383999H29.1757L28.7917 2.736ZM26.5117 17.136H21.7837L23.2957 7.656H20.8957L21.2797 5.184H28.4077L26.5117 17.136ZM43.2129 17.136H38.4849L39.9969 7.608H35.2449L33.7329 17.136H28.8849L30.7809 5.184H42.7089L42.3489 7.44H44.7489L43.2129 17.136ZM56.9568 17.136H49.8288L50.1888 14.832H47.7408L48.8928 7.584H46.5408L46.9248 5.136H49.2768L49.6368 2.784H54.4608L54.1008 5.136H56.4528L56.0688 7.584H53.6928L52.5888 14.664H57.3408L56.9568 17.136Z" fill="black"/>
</svg>
