<svg width="65" height="64" viewBox="0 0 65 64" fill="none" xmlns="http://www.w3.org/2000/svg">
<path d="M41.634 26.98C40.784 26.04 39.364 25.57 37.304 25.57H37.064V25.53C37.064 23.85 37.064 21.77 33.304 21.77H31.784C28.024 21.77 28.024 23.86 28.024 25.53V25.58H27.784C25.714 25.58 24.304 26.05 23.454 26.99C22.464 28.09 22.494 29.57 22.594 30.58L22.604 30.65L22.6814 31.4633C22.6957 31.6131 22.7764 31.7484 22.9023 31.8307C23.1421 31.9877 23.5434 32.2464 23.784 32.38C23.924 32.47 24.074 32.55 24.224 32.63C25.934 33.57 27.814 34.2 29.724 34.51C29.814 35.45 30.224 36.55 32.414 36.55C34.604 36.55 35.034 35.46 35.104 34.49C37.144 34.16 39.114 33.45 40.894 32.41C40.954 32.38 40.994 32.35 41.044 32.32C41.4407 32.0958 41.8523 31.8195 42.2274 31.5489C42.3405 31.4673 42.4127 31.3413 42.4281 31.2028L42.444 31.06L42.494 30.59C42.504 30.53 42.504 30.48 42.514 30.41C42.594 29.4 42.574 28.02 41.634 26.98ZM33.634 33.83C33.634 34.89 33.634 35.05 32.404 35.05C31.174 35.05 31.174 34.86 31.174 33.84V32.58H33.634V33.83ZM29.454 25.57V25.53C29.454 23.83 29.454 23.2 31.784 23.2H33.304C35.634 23.2 35.634 23.84 35.634 25.53V25.58H29.454V25.57Z" fill="#8A8AAB"/>
<path d="M41.4175 33.7341C41.7711 33.5659 42.1784 33.8462 42.143 34.2361L41.784 38.19C41.574 40.19 40.754 42.23 36.354 42.23H28.734C24.334 42.23 23.514 40.19 23.304 38.2L22.9633 34.4521C22.9283 34.0667 23.3262 33.7867 23.6789 33.9463C24.8183 34.4618 26.9214 35.3764 28.2206 35.7166C28.3849 35.7597 28.5178 35.8773 28.5897 36.0311C29.1967 37.3292 30.5131 38.02 32.414 38.02C34.2961 38.02 35.6292 37.3026 36.2382 36.0013C36.3102 35.8474 36.4433 35.7298 36.6077 35.6865C37.9872 35.3235 40.2258 34.3012 41.4175 33.7341Z" fill="#8A8AAB"/>
</svg>
