<svg width="65" height="64" viewBox="0 0 65 64" fill="none" xmlns="http://www.w3.org/2000/svg">
<path d="M38.7852 23.3824L38.7057 27.6017C38.6944 28.1806 39.069 28.9487 39.5458 29.2938L42.3609 31.3868C44.1658 32.7227 43.8706 34.3592 41.7139 35.0271L38.0474 36.1515C37.4344 36.3408 36.7874 36.9976 36.6284 37.6099L35.7544 40.8828C35.062 43.4656 33.3366 43.7217 31.9063 41.4506L29.9084 38.2778C29.5452 37.6989 28.6825 37.2648 28.0014 37.2982L24.2101 37.4874C21.4971 37.621 20.7252 36.0847 22.496 34.0586L24.7436 31.4981C25.1636 31.0194 25.3565 30.1288 25.1636 29.5276L24.0057 25.9207C23.336 23.8055 24.5392 22.6365 26.6846 23.3268L30.0333 24.4066C30.6009 24.5847 31.4522 24.4623 31.929 24.1172L35.4252 21.6457C37.3209 20.321 38.8306 21.1002 38.7852 23.3824Z" fill="black"/>
</svg>
