<svg width="1288" height="199" viewBox="0 0 1288 199" fill="none" xmlns="http://www.w3.org/2000/svg">
<path d="M1262.16 195.602H1196.09L1200.99 164.201H1169.27L1174.5 131.164H1142.44L1132.3 195.602H1066.89L1097.96 0H1163.05L1147.68 97.4737H1179.73L1184.97 65.4186H1216.69L1221.93 32.7093H1288L1283.09 64.7644H1251.04L1245.81 97.4737H1214.08L1208.84 128.875H1240.9L1235.67 162.238H1267.39L1262.16 195.602Z" fill="white"/>
<path d="M1046.86 198.873H839.483L848.969 139.996H877.753L882.659 110.558H911.117L916.023 80.7921H1005.97L1010.55 51.6809H891.818L896.724 21.2612H1045.88L1041.63 49.3912H1070.41L1065.83 79.8109H1036.72L1032.14 109.576H943.499L938.919 139.342H908.827L903.92 169.107H991.908L996.488 140.323H1056.02L1046.86 198.873Z" fill="white"/>
<path d="M842.403 64.7646H778.62L758.013 195.602H691.94L712.547 65.4188H743.621L748.855 32.7095H847.637L842.403 64.7646Z" fill="white"/>
<path d="M664.256 195.602H599.818L604.725 163.874H572.67L567.763 195.602H501.036L505.943 163.874H473.888L489.588 65.0917H521.643L526.55 32.7095H624.678L619.444 65.0917H651.499L656.733 32.7095H690.096L664.256 195.602ZM609.304 130.183L619.444 65.4188H555.007L539.633 162.892H572.997L578.23 130.183H609.304Z" fill="white"/>
<path d="M457.512 130.183H327.329L322.423 162.238H419.57L414.336 195.602H283.826L288.732 164.201H256.677L272.378 64.7646H304.433L309.339 32.7095H440.176L434.943 64.7646H467.652L457.512 130.183ZM397.327 97.4739L402.234 65.4188H337.796L332.89 97.4739H397.327Z" fill="white"/>
<path d="M243.684 97.8008H212.283L207.05 130.837H174.341L169.434 162.892H136.725L131.491 195.602H0L5.23349 163.546H102.38L107.614 130.837H75.5585L80.792 98.455H48.0827L53.3162 66.0728H20.6069L31.0738 0H95.5111L85.3713 64.1102H118.081L112.847 97.1466H177.611L192.985 0H259.058L243.684 97.8008Z" fill="white"/>
</svg>
